<svg width="20" height="20" viewBox="0 0 20 20" fill="none" xmlns="http://www.w3.org/2000/svg">
<g id="vuesax/linear/receipt-add">
<path id="Vector" d="M18.3333 4.99935V7.01601C18.3333 8.33268 17.5 9.16602 16.1833 9.16602H13.3333V3.34101C13.3333 2.41601 14.0916 1.66602 15.0166 1.66602C15.925 1.67435 16.7583 2.04101 17.3583 2.64101C17.9583 3.24935 18.3333 4.08268 18.3333 4.99935Z" stroke="white" stroke-width="1.25" stroke-miterlimit="10" stroke-linecap="round" stroke-linejoin="round"/>
<path id="Vector_2" d="M1.66669 5.83268V17.4993C1.66669 18.191 2.45003 18.5827 3.00003 18.166L4.42502 17.0993C4.75835 16.8493 5.22502 16.8827 5.52502 17.1827L6.90835 18.5744C7.23335 18.8994 7.76669 18.8994 8.09169 18.5744L9.49169 17.1744C9.78335 16.8827 10.25 16.8493 10.575 17.0993L12 18.166C12.55 18.5744 13.3334 18.1827 13.3334 17.4993V3.33268C13.3334 2.41602 14.0834 1.66602 15 1.66602H5.83335H5.00002C2.50002 1.66602 1.66669 3.15768 1.66669 4.99935V5.83268Z" stroke="white" stroke-width="1.25" stroke-miterlimit="10" stroke-linecap="round" stroke-linejoin="round"/>
<path id="Vector_3" d="M5.20831 8.33398H9.79165" stroke="white" stroke-width="1.25" stroke-linecap="round" stroke-linejoin="round"/>
<path id="Vector_4" d="M7.5 10.6243V6.04102" stroke="white" stroke-width="1.25" stroke-linecap="round" stroke-linejoin="round"/>
</g>
</svg>
