<svg width="20" height="20" viewBox="0 0 20 20" fill="none" xmlns="http://www.w3.org/2000/svg">
<g id="vuesax/linear/wallet">
<g id="wallet">
<path id="Vector" d="M10.55 2.0978L10.525 2.15613L8.10836 7.76446H5.73336C5.1667 7.76446 4.62503 7.88113 4.13336 8.08946L5.5917 4.60613L5.62503 4.5228L5.68336 4.38946C5.70003 4.33946 5.7167 4.28946 5.7417 4.2478C6.83336 1.7228 8.06669 1.1478 10.55 2.0978Z" stroke="white" stroke-width="1.25" stroke-linecap="round" stroke-linejoin="round"/>
<path id="Vector_2" d="M15.0417 7.93099C14.6667 7.81432 14.2667 7.76432 13.8667 7.76432H8.10834L10.525 2.15599L10.55 2.09766C10.675 2.13932 10.7917 2.19766 10.9167 2.24766L12.7583 3.02266C13.7833 3.44766 14.5 3.88932 14.9333 4.42266C15.0167 4.52266 15.0833 4.61432 15.1417 4.72266C15.2167 4.83932 15.275 4.95599 15.3083 5.08099C15.3417 5.15599 15.3667 5.23099 15.3833 5.29766C15.6083 5.99766 15.475 6.85599 15.0417 7.93099Z" stroke="white" stroke-width="1.25" stroke-linecap="round" stroke-linejoin="round"/>
<path id="Vector_3" d="M17.9348 11.8323V13.4573C17.9348 13.624 17.9265 13.7906 17.9181 13.9573C17.7598 16.8656 16.1348 18.3323 13.0515 18.3323H6.55145C6.35145 18.3323 6.15145 18.3156 5.95979 18.2906C3.30979 18.1156 1.89312 16.699 1.71812 14.049C1.69312 13.8573 1.67645 13.6573 1.67645 13.4573V11.8323C1.67645 10.1573 2.69312 8.71563 4.14312 8.09063C4.64312 7.88229 5.17645 7.76562 5.74312 7.76562H13.8765C14.2848 7.76562 14.6848 7.82396 15.0515 7.93229C16.7098 8.44063 17.9348 9.99063 17.9348 11.8323Z" stroke="white" stroke-width="1.25" stroke-linecap="round" stroke-linejoin="round"/>
<path id="Vector_4" d="M5.59169 4.60547L4.13335 8.0888C2.68335 8.7138 1.66669 10.1555 1.66669 11.8305V9.3888C1.66669 7.02214 3.35002 5.04714 5.59169 4.60547Z" stroke="white" stroke-width="1.25" stroke-linecap="round" stroke-linejoin="round"/>
<path id="Vector_5" d="M17.9322 9.39037V11.832C17.9322 9.9987 16.7155 8.44036 15.0488 7.94036C15.4822 6.85703 15.6072 6.00703 15.3988 5.2987C15.3822 5.2237 15.3572 5.1487 15.3238 5.08203C16.8738 5.88203 17.9322 7.5237 17.9322 9.39037Z" stroke="white" stroke-width="1.25" stroke-linecap="round" stroke-linejoin="round"/>
</g>
</g>
</svg>
